<svg width="79" height="79" viewBox="0 0 79 79" fill="none" xmlns="http://www.w3.org/2000/svg">
<g clip-path="url(#clip0_51_2)">
<path d="M39.8537 39.8534L49.6566 30.0505L54.0278 34.4217L39.5001 48.9494L24.9723 34.4216L29.3435 30.0504L39.1465 39.8534L39.5001 40.207L39.8537 39.8534ZM0.5 14.3636C0.5 6.70696 6.70696 0.5 14.3636 0.5H64.6364C72.293 0.5 78.5 6.70696 78.5 14.3636V64.6364C78.5 72.293 72.293 78.5 64.6364 78.5H14.3636C6.70696 78.5 0.5 72.293 0.5 64.6364V14.3636ZM64.6364 6.68182H14.3636C10.1211 6.68182 6.68182 10.1211 6.68182 14.3636V64.6364C6.68182 68.8789 10.1211 72.3182 14.3636 72.3182H64.6364C68.8789 72.3182 72.3182 68.8789 72.3182 64.6364V14.3636C72.3182 10.1211 68.8789 6.68182 64.6364 6.68182Z" fill="#55483C" stroke="#8F9776"/>
</g>
<defs>
<clipPath id="clip0_51_2">
<rect width="79" height="79" fill="white"/>
</clipPath>
</defs>
</svg>
