<svg width="130" height="130" viewBox="0 0 130 130" fill="none" xmlns="http://www.w3.org/2000/svg">
<rect width="130" height="130" fill="#55483C"/>
<rect x="16" y="16" width="98" height="98" stroke="#FBF6DF" stroke-width="2"/>
<path d="M61.472 51.16L61.256 46.672L69.296 38.2H73.616L66.368 46L64.208 48.304L61.472 51.16ZM57.992 55V38.2H61.856V55H57.992ZM69.488 55L63.512 47.68L66.056 44.92L74.024 55H69.488Z" fill="#FBF6DF"/>
<path d="M57.992 81V64.2H65.264C66.768 64.2 68.064 64.448 69.152 64.944C70.24 65.424 71.08 66.12 71.672 67.032C72.264 67.944 72.56 69.032 72.56 70.296C72.56 71.544 72.264 72.624 71.672 73.536C71.08 74.432 70.24 75.12 69.152 75.6C68.064 76.08 66.768 76.32 65.264 76.32H60.152L61.88 74.616V81H57.992ZM68.672 81L64.472 74.904H68.624L72.872 81H68.672ZM61.88 75.048L60.152 73.224H65.048C66.248 73.224 67.144 72.968 67.736 72.456C68.328 71.928 68.624 71.208 68.624 70.296C68.624 69.368 68.328 68.648 67.736 68.136C67.144 67.624 66.248 67.368 65.048 67.368H60.152L61.88 65.52V75.048Z" fill="#FBF6DF"/>
<line x1="52" y1="60" x2="79" y2="60" stroke="#FBF6DF" stroke-width="2"/>
</svg>
